<?xml version="1.0" encoding="UTF-8" standalone="no" ?>
<!DOCTYPE svg PUBLIC "-//W3C//DTD SVG 1.1//EN" "http://www.w3.org/Graphics/SVG/1.1/DTD/svg11.dtd">
<svg xmlns="http://www.w3.org/2000/svg" xmlns:xlink="http://www.w3.org/1999/xlink" version="1.1" width="500" height="500" viewBox="0 0 500 500" xml:space="preserve">
<desc>Created with Fabric.js 4.6.0</desc>
<defs>
</defs>
<g transform="matrix(1 0 0 1 150.51 122.37)" id="Q2g4hOPsABcCtVf0M0hPh"  >
<path style="stroke: rgb(0,0,0); stroke-width: 2; stroke-dasharray: none; stroke-linecap: butt; stroke-dashoffset: 0; stroke-linejoin: miter; stroke-miterlimit: 4; fill: rgb(255,255,255); fill-rule: nonzero; opacity: 1;" vector-effect="non-scaling-stroke"  transform=" translate(-50, -50)" d="M 0 0 L 100 0 L 100 100 L 0 100 z" stroke-linecap="round" />
</g>
<g transform="matrix(1 0 0 1 250 122.37)" id="TieSqMCOeHkeM2jD4LH4Q"  >
<path style="stroke: rgb(0,0,0); stroke-width: 2; stroke-dasharray: none; stroke-linecap: butt; stroke-dashoffset: 0; stroke-linejoin: miter; stroke-miterlimit: 4; fill: rgb(255,255,255); fill-rule: nonzero; opacity: 1;" vector-effect="non-scaling-stroke"  transform=" translate(-50, -50)" d="M 0 0 L 100 0 L 100 100 L 0 100 z" stroke-linecap="round" />
</g>
<g transform="matrix(1 0 0 1 350 122.37)" id="9cvhbyAa1OZuZLuw8cc9b"  >
<path style="stroke: rgb(0,0,0); stroke-width: 2; stroke-dasharray: none; stroke-linecap: butt; stroke-dashoffset: 0; stroke-linejoin: miter; stroke-miterlimit: 4; fill: rgb(255,255,255); fill-rule: nonzero; opacity: 1;" vector-effect="non-scaling-stroke"  transform=" translate(-50, -50)" d="M 0 0 L 100 0 L 100 100 L 0 100 z" stroke-linecap="round" />
</g>
<g transform="matrix(1 0 0 1 150.26 222.37)" id="RZ21dHSNGZ7u7Pn0n6VUj"  >
<path style="stroke: rgb(0,0,0); stroke-width: 2; stroke-dasharray: none; stroke-linecap: butt; stroke-dashoffset: 0; stroke-linejoin: miter; stroke-miterlimit: 4; fill: rgb(255,255,255); fill-rule: nonzero; opacity: 1;" vector-effect="non-scaling-stroke"  transform=" translate(-50, -50)" d="M 0 0 L 100 0 L 100 100 L 0 100 z" stroke-linecap="round" />
</g>
<g transform="matrix(1 0 0 1 249.74 222.37)" id="G_EzcE-gdPhSIg0sCx5Jd"  >
<path style="stroke: rgb(0,0,0); stroke-width: 2; stroke-dasharray: none; stroke-linecap: butt; stroke-dashoffset: 0; stroke-linejoin: miter; stroke-miterlimit: 4; fill: rgb(255,255,255); fill-rule: nonzero; opacity: 1;" vector-effect="non-scaling-stroke"  transform=" translate(-50, -50)" d="M 0 0 L 100 0 L 100 100 L 0 100 z" stroke-linecap="round" />
</g>
<g transform="matrix(1 0 0 1 349.74 222.37)" id="c2wJfLK57U8CIoYZPU8gM"  >
<path style="stroke: rgb(0,0,0); stroke-width: 2; stroke-dasharray: none; stroke-linecap: butt; stroke-dashoffset: 0; stroke-linejoin: miter; stroke-miterlimit: 4; fill: rgb(255,255,255); fill-rule: nonzero; opacity: 1;" vector-effect="non-scaling-stroke"  transform=" translate(-50, -50)" d="M 0 0 L 100 0 L 100 100 L 0 100 z" stroke-linecap="round" />
</g>
<g transform="matrix(1 0 0 1 150 322.37)" id="kdBgeWDCowUVS6att5koU"  >
<path style="stroke: rgb(0,0,0); stroke-width: 2; stroke-dasharray: none; stroke-linecap: butt; stroke-dashoffset: 0; stroke-linejoin: miter; stroke-miterlimit: 4; fill: rgb(255,255,255); fill-rule: nonzero; opacity: 1;" vector-effect="non-scaling-stroke"  transform=" translate(-50, -50)" d="M 0 0 L 100 0 L 100 100 L 0 100 z" stroke-linecap="round" />
</g>
<g transform="matrix(1 0 0 1 249.48 322.37)" id="rs6yPwj9fsrPfi52VhEHv"  >
<path style="stroke: rgb(0,0,0); stroke-width: 2; stroke-dasharray: none; stroke-linecap: butt; stroke-dashoffset: 0; stroke-linejoin: miter; stroke-miterlimit: 4; fill: rgb(255,255,255); fill-rule: nonzero; opacity: 1;" vector-effect="non-scaling-stroke"  transform=" translate(-50, -50)" d="M 0 0 L 100 0 L 100 100 L 0 100 z" stroke-linecap="round" />
</g>
<g transform="matrix(1 0 0 1 349.48 322.37)" id="CdzBF6rAOdN4GvmfOtlih"  >
<path style="stroke: rgb(0,0,0); stroke-width: 2; stroke-dasharray: none; stroke-linecap: butt; stroke-dashoffset: 0; stroke-linejoin: miter; stroke-miterlimit: 4; fill: rgb(255,255,255); fill-rule: nonzero; opacity: 1;" vector-effect="non-scaling-stroke"  transform=" translate(-50, -50)" d="M 0 0 L 100 0 L 100 100 L 0 100 z" stroke-linecap="round" />
</g>
<g transform="matrix(1 0 0 1 150 122.37)" style="" id="nEOoh5EKhQLpxEXyXm0p_"  >
		<text xml:space="preserve" font-family="Open Sans" font-size="50" font-style="normal" font-weight="normal" line-height="1.16" style="stroke: none; stroke-width: 1; stroke-dasharray: none; stroke-linecap: butt; stroke-dashoffset: 0; stroke-linejoin: miter; stroke-miterlimit: 4; fill: rgb(0,0,0); fill-rule: nonzero; opacity: 1; white-space: pre;" ><tspan x="-14.29" y="15.71" >3</tspan></text>
</g>
<g transform="matrix(1 0 0 1 349.48 322.37)" style="" id="tLWHF82R3m0DfG1DiJk_o"  >
		<text xml:space="preserve" font-family="Open Sans" font-size="50" font-style="normal" font-weight="normal" line-height="1.16" style="stroke: none; stroke-width: 1; stroke-dasharray: none; stroke-linecap: butt; stroke-dashoffset: 0; stroke-linejoin: miter; stroke-miterlimit: 4; fill: rgb(0,0,0); fill-rule: nonzero; opacity: 1; white-space: pre;" ><tspan x="-14.29" y="15.71" >5</tspan></text>
</g>
<g transform="matrix(1 0 0 1 150.51 222.37)" style="" id="McUvh3vHGjDnC1Y_D9Euw"  >
		<text xml:space="preserve" font-family="Open Sans" font-size="50" font-style="normal" font-weight="normal" line-height="1.16" style="stroke: none; stroke-width: 1; stroke-dasharray: none; stroke-linecap: butt; stroke-dashoffset: 0; stroke-linejoin: miter; stroke-miterlimit: 4; fill: rgb(0,0,0); fill-rule: nonzero; opacity: 1; white-space: pre;" ><tspan x="-14.29" y="15.71" >7</tspan></text>
</g>
<g transform="matrix(1 0 0 1 249.74 222.37)" style="" id="WGl_NqumCyqEyQ3MwUS6l"  >
		<text xml:space="preserve" font-family="Open Sans" font-size="50" font-style="normal" font-weight="normal" line-height="1.16" style="stroke: none; stroke-width: 1; stroke-dasharray: none; stroke-linecap: butt; stroke-dashoffset: 0; stroke-linejoin: miter; stroke-miterlimit: 4; fill: rgb(0,0,0); fill-rule: nonzero; opacity: 1; white-space: pre;" ><tspan x="-14.29" y="15.71" >9</tspan></text>
</g>
<g transform="matrix(1 0 0 1 349.48 122.37)" style="" id="HYgwgZHSc7EG3EX0TJjVd"  >
		<text xml:space="preserve" font-family="Open Sans" font-size="50" font-style="normal" font-weight="normal" line-height="1.16" style="stroke: none; stroke-width: 1; stroke-dasharray: none; stroke-linecap: butt; stroke-dashoffset: 0; stroke-linejoin: miter; stroke-miterlimit: 4; fill: rgb(0,0,0); fill-rule: nonzero; opacity: 1; white-space: pre;" ><tspan x="-14.29" y="15.71" >1</tspan></text>
</g>
</svg>