<?xml version="1.0" encoding="UTF-8" standalone="no"?>
<!DOCTYPE svg PUBLIC "-//W3C//DTD SVG 1.0//EN" "http://www.w3.org/TR/2001/REC-SVG-20010904/DTD/svg10.dtd">
<svg xmlns:svg="http://www.w3.org/2000/svg" xmlns="http://www.w3.org/2000/svg" xmlns:xlink="http://www.w3.org/1999/xlink" version="1.0" width="64" height="64" viewBox="0 0 504 504">
<path
  d="M 48,132 L 64,302 126,395 103,442 C 140,470 319,473 400,442 L 377,395 439,302 455,132 377,279 L 361,93 291,271 251,77 212,271 142,93 126,279 L 48,132 z"
  style="fill:#ffffff;stroke:#000000;stroke-width:16;" />
<circle cx="40" cy="110" r="26" style="fill:#ffffff;stroke:#000000;stroke-width:16;" id="circle"/>
<use transform="translate(98,-37)" xlink:href="#circle" />
<use transform="translate(210,-58)" xlink:href="#circle" />
<use transform="translate(322,-38)" xlink:href="#circle" />
<use transform="translate(420,-1)" xlink:href="#circle" />
<path d="M 103,442 C 202,400 294,397 392,442" style="fill:#ffffff;stroke:#000000;stroke-width:16;" />
<path d="M 126,395 C 219,365 274,359 377,395" style="fill:#ffffff;stroke:#000000;stroke-width:16;" />
<path d="M 95,349 C 194,307 303,304 401,349" style="fill:#ffffff;stroke:#000000;stroke-width:16;" />
<path
 d="M 72,302 L 94,283 C 116,292 154,280 169,265 189,278 221,284 252,252 283,285 309,279 338,268 363,288 388,291 414,284 L 433,305"
 style="fill:none;stroke:#000000;stroke-width:16;" />
</svg>
